<svg version="1.1" id="Icon_Set" xmlns="http://www.w3.org/2000/svg" x="0" y="0" viewBox="0 0 512 512" style="enable-background:new 0 0 512 512" xml:space="preserve"><style>.st1{fill:#fd919e}.st2{fill:#4c4372}</style><g id="Symptom_List"><circle cx="256" cy="256" r="207" style="fill:#f0c48a"/><path d="M359.806 411.395H152.194c-8.273 0-14.98-6.707-14.98-14.98v-263.19c0-8.273 6.707-14.98 14.98-14.98h207.613c8.273 0 14.98 6.707 14.98 14.98v263.19c-.001 8.273-6.707 14.98-14.981 14.98z" style="fill:#a4cff2"/><path d="M359.806 118.245h-35.948v293.15h35.948c8.273 0 14.98-6.707 14.98-14.98v-263.19c0-8.274-6.706-14.98-14.98-14.98z" style="fill:#7babf1"/><path class="st2" d="M359.807 417.395H152.194c-11.569 0-20.98-9.412-20.98-20.98v-263.19c0-11.569 9.412-20.98 20.98-20.98h207.613c11.568 0 20.979 9.412 20.979 20.98v263.19c0 11.568-9.411 20.98-20.979 20.98zm-207.613-293.15c-4.952 0-8.98 4.029-8.98 8.98v263.19c0 4.952 4.029 8.98 8.98 8.98h207.613c4.951 0 8.979-4.029 8.979-8.98v-263.19c0-4.952-4.028-8.98-8.979-8.98H152.194z"/><path style="fill:#fff" d="M163.175 145.856h185.65v237.927h-185.65z"/><path style="fill:#d3e6f8" d="M323.858 145.856h24.967v237.927h-24.967z"/><path class="st1" d="M192.584 256.517h31.317v31.317h-31.317zM192.584 320.837h31.317v31.317h-31.317z"/><path class="st2" d="M348.825 389.783h-185.65a6 6 0 0 1-6-6V145.856a6 6 0 0 1 6-6h185.65a6 6 0 0 1 6 6v237.927a6 6 0 0 1-6 6zm-179.65-12h173.65V151.856h-173.65v225.927z"/><path class="st2" d="M208.419 231.635a5.998 5.998 0 0 1-4.462-1.989l-20.277-22.562a6 6 0 1 1 8.925-8.021l15.656 17.42 21.156-25.246a6 6 0 1 1 9.197 7.708l-25.596 30.544a5.998 5.998 0 0 1-4.495 2.145l-.104.001zM223.901 293.834h-31.317a6 6 0 0 1-6-6v-31.317a6 6 0 0 1 6-6h31.317a6 6 0 0 1 6 6v31.317a6 6 0 0 1-6 6zm-25.317-12h19.317v-19.317h-19.317v19.317zM223.901 358.154h-31.317a6 6 0 0 1-6-6v-31.317a6 6 0 0 1 6-6h31.317a6 6 0 0 1 6 6v31.317a6 6 0 0 1-6 6zm-25.317-12h19.317v-19.317h-19.317v19.317zM323.858 223.907h-77.22a6 6 0 0 1 0-12h77.22a6 6 0 0 1 0 12zM323.858 278.265h-77.22a6 6 0 0 1 0-12h77.22a6 6 0 0 1 0 12zM323.858 342.496h-77.22a6 6 0 0 1 0-12h77.22a6 6 0 0 1 0 12z"/><path class="st1" d="M285.105 163.549h-58.21c-7.745 0-14.023-6.278-14.023-14.023v-34.898c0-7.745 6.278-14.023 14.023-14.023h58.21c7.745 0 14.023 6.278 14.023 14.023v34.898c.001 7.745-6.278 14.023-14.023 14.023z"/><path d="M285.105 100.605h-6.162v62.945h6.162c7.745 0 14.023-6.279 14.023-14.023v-34.898c.001-7.745-6.278-14.024-14.023-14.024z" style="fill:#e8677d"/><g><path class="st2" d="M285.105 169.55h-58.21c-11.041 0-20.023-8.982-20.023-20.023v-34.898c0-11.041 8.982-20.023 20.023-20.023h58.21c11.041 0 20.023 8.982 20.023 20.023v34.898c.001 11.04-8.982 20.023-20.023 20.023zm-58.21-62.945c-4.424 0-8.023 3.599-8.023 8.023v34.898c0 4.424 3.599 8.023 8.023 8.023h58.21c4.424 0 8.023-3.599 8.023-8.023v-34.898c0-4.424-3.6-8.023-8.023-8.023h-58.21z"/></g><g><path class="st2" d="M278.943 138.077h-45.887a6 6 0 0 1 0-12h45.887a6 6 0 0 1 0 12z"/></g></g></svg>